<?xml version="1.0" standalone="no"?>
<!DOCTYPE svg PUBLIC "-//W3C//DTD SVG 20010904//EN"
 "http://www.w3.org/TR/2001/REC-SVG-20010904/DTD/svg10.dtd">
<svg version="1.0" xmlns="http://www.w3.org/2000/svg"
 width="512.000000pt" height="512.000000pt" viewBox="0 0 512.000000 512.000000"
 preserveAspectRatio="xMidYMid meet">

<g transform="translate(0.000000,512.000000) scale(0.100000,-0.100000)"
fill="#000000" stroke="none">
<path d="M2206 4644 c-67 -418 -66 -414 -82 -414 -33 0 -238 -77 -338 -127
-60 -30 -114 -52 -121 -49 -6 2 -133 91 -281 197 -148 106 -276 194 -284 196
-9 2 -97 -79 -224 -205 l-208 -209 184 -264 c102 -145 193 -276 202 -291 18
-28 18 -28 -42 -150 -55 -113 -122 -289 -122 -323 0 -8 -4 -16 -9 -19 -4 -3
-162 -31 -350 -62 l-341 -57 0 -304 c0 -166 3 -303 7 -303 21 0 651 -114 671
-121 12 -5 22 -15 22 -23 0 -35 66 -210 122 -323 l60 -123 -197 -276 c-109
-152 -199 -284 -202 -293 -2 -10 67 -87 205 -225 l209 -208 287 201 c158 111
291 201 297 201 5 0 58 -24 117 -54 97 -48 303 -126 336 -126 9 0 29 -99 72
-352 l59 -353 300 -3 301 -2 48 272 c26 150 54 309 63 353 l14 81 100 31 c108
35 235 90 312 135 27 15 54 25 60 21 7 -3 140 -96 296 -206 l283 -199 209 208
c115 115 209 214 209 220 0 6 -61 95 -135 198 -74 102 -166 230 -204 284 l-70
98 58 116 c32 63 75 168 96 231 33 105 40 116 64 121 53 11 651 116 661 116 6
0 10 108 10 303 l0 304 -292 47 c-161 27 -319 52 -350 58 l-57 10 -36 111
c-20 62 -62 164 -93 227 -31 63 -56 120 -56 126 1 6 92 140 204 298 l202 288
-208 209 c-115 115 -213 209 -219 209 -6 0 -138 -92 -294 -204 l-284 -204
-117 59 c-64 32 -169 75 -233 96 l-116 38 -10 45 c-5 25 -33 183 -62 353 l-53
307 -301 0 -301 0 -48 -296z m505 -815 c299 -39 537 -156 750 -368 212 -213
329 -451 368 -750 26 -196 -1 -410 -74 -605 -124 -330 -411 -617 -741 -741
-415 -156 -859 -92 -1226 177 -129 95 -292 287 -366 435 -114 224 -162 493
-131 734 37 284 150 524 346 729 279 294 682 440 1074 389z"/>
<path d="M2460 3529 c-459 -45 -826 -415 -869 -875 -56 -615 448 -1119 1063
-1063 463 43 832 412 875 875 27 295 -74 577 -280 783 -151 151 -367 257 -561
276 -128 12 -145 12 -228 4z m263 -606 c163 -77 258 -255 228 -425 -23 -133
-107 -244 -228 -301 -62 -29 -76 -32 -168 -32 -91 0 -106 3 -166 31 -255 121
-314 448 -116 646 85 85 169 118 292 115 78 -2 99 -6 158 -34z"/>
</g>
</svg>
